<?xml version="1.0" standalone="no"?>
<!DOCTYPE svg PUBLIC "-//W3C//DTD SVG 20010904//EN"
 "http://www.w3.org/TR/2001/REC-SVG-20010904/DTD/svg10.dtd">
<svg version="1.0" xmlns="http://www.w3.org/2000/svg"
 width="862.000000pt" height="746.000000pt" viewBox="0 0 862.000000 746.000000"
 preserveAspectRatio="xMidYMid meet">

<g transform="translate(0.000000,746.000000) scale(0.100000,-0.100000)"
fill="#000000" stroke="none">
<path d="M4120 7034 c-475 -35 -899 -149 -1295 -349 -344 -173 -606 -366 -881
-647 -514 -524 -826 -1176 -920 -1923 -24 -188 -24 -575 -1 -765 51 -401 159
-762 332 -1105 173 -344 366 -606 647 -881 524 -514 1176 -826 1923 -920 188
-24 575 -24 765 -1 401 51 762 159 1105 332 344 173 606 366 881 647 514 524
826 1176 920 1923 24 188 24 575 1 765 -51 401 -159 762 -332 1105 -173 344
-366 606 -647 881 -522 512 -1184 829 -1918 919 -124 15 -474 27 -580 19z
m168 -466 c5 -7 24 -60 41 -117 17 -57 32 -106 34 -108 2 -1 52 -18 112 -35
170 -52 170 -84 0 -136 -60 -17 -110 -34 -112 -35 -1 -2 -18 -52 -35 -112 -52
-170 -84 -170 -136 0 -17 60 -34 110 -35 112 -2 1 -52 18 -112 35 -170 52
-170 84 0 136 60 17 110 34 112 35 2 2 17 51 34 108 34 113 42 129 69 129 10
0 22 -6 28 -12z m1027 -173 c16 -15 25 -36 25 -55 0 -19 -9 -40 -25 -55 -15
-16 -36 -25 -55 -25 -19 0 -40 9 -55 25 -16 15 -25 36 -25 55 0 19 9 40 25 55
15 16 36 25 55 25 19 0 40 -9 55 -25z m-1905 -230 c6 -8 14 -33 17 -55 6 -46
12 -51 72 -65 79 -18 82 -72 5 -88 -60 -14 -68 -20 -79 -72 -17 -82 -71 -88
-88 -9 -14 60 -20 68 -72 79 -82 17 -88 71 -9 88 60 13 68 21 77 68 5 24 14
50 19 57 14 16 43 15 58 -3z m-510 -65 c11 -11 20 -29 20 -40 0 -26 -34 -60
-60 -60 -26 0 -60 34 -60 60 0 26 34 60 60 60 11 0 29 -9 40 -20z m2190 -55
c26 -32 -13 -81 -47 -59 -35 22 -23 74 17 74 10 0 23 -7 30 -15z m757 -197 c4
-7 15 -33 24 -57 14 -40 20 -46 64 -61 87 -29 87 -71 0 -100 -45 -15 -50 -20
-65 -65 -19 -56 -41 -76 -67 -59 -9 6 -24 32 -33 59 -15 45 -20 50 -65 65 -87
29 -87 71 0 100 44 15 50 21 64 61 21 59 29 69 51 69 10 0 22 -6 27 -12z
m-3279 -80 c5 -7 20 -47 32 -88 12 -41 26 -79 31 -85 5 -5 46 -21 91 -35 132
-41 132 -79 0 -120 -44 -14 -85 -29 -89 -33 -4 -4 -19 -45 -33 -89 -27 -86
-48 -111 -77 -92 -10 6 -29 47 -43 92 -14 44 -29 85 -33 89 -4 4 -45 19 -89
33 -132 41 -132 79 0 120 45 14 86 30 91 35 5 6 19 44 31 85 25 84 34 100 60
100 10 0 22 -6 28 -12z m3934 -105 c38 -34 11 -103 -40 -103 -54 0 -81 62 -45
102 20 22 61 23 85 1z m-1287 -48 c16 -15 25 -36 25 -55 0 -19 -9 -40 -25 -55
-49 -50 -135 -15 -135 55 0 70 86 105 135 55z m1784 -222 c9 -19 -7 -79 -219
-797 -60 -204 -116 -376 -123 -383 -25 -25 -47 -2 -122 124 -40 68 -76 124
-80 124 -4 0 -32 -37 -62 -83 -318 -473 -912 -980 -1593 -1360 -742 -414
-1661 -730 -2365 -813 -174 -21 -473 -21 -590 0 -231 40 -376 128 -420 253
-25 72 -30 214 -11 295 43 184 198 387 399 526 l47 32 0 -33 c0 -88 -21 -213
-39 -233 -37 -40 -120 -177 -140 -231 -26 -69 -27 -149 -3 -189 62 -101 380
-158 697 -126 482 49 1168 254 1726 516 883 415 1582 953 2050 1578 49 65 89
121 89 125 0 4 -79 61 -175 125 -190 127 -203 144 -142 172 66 31 1033 394
1049 395 10 0 21 -8 27 -17z m-4949 -8 c26 -32 -13 -81 -47 -59 -35 22 -23 74
17 74 10 0 23 -7 30 -15z m1998 -98 c71 -47 94 -92 104 -209 6 -78 5 -104 -4
-110 -7 -4 -47 -8 -88 -8 -152 0 -290 -59 -406 -175 -179 -178 -212 -411 -84
-602 l21 -32 -43 -11 c-121 -33 -202 -66 -340 -138 -4 -2 -26 34 -49 79 -51
102 -133 188 -216 227 -49 23 -74 27 -160 30 -119 4 -129 11 -142 91 -11 68 2
140 35 204 31 58 216 250 253 262 39 12 46 -7 46 -123 0 -95 3 -111 22 -139
30 -41 70 -55 111 -37 18 7 33 19 34 26 1 7 2 90 3 183 0 163 1 172 27 227 49
105 156 192 266 216 52 12 53 7 7 -84 -55 -109 -46 -197 25 -219 50 -16 88 27
131 148 27 76 105 156 191 198 56 27 71 30 139 27 63 -2 83 -8 117 -31z m665
-1 c75 -36 132 -98 173 -186 49 -106 59 -122 88 -144 32 -25 69 -14 100 27 30
41 25 92 -18 179 -20 40 -36 77 -36 82 0 14 71 -4 132 -35 117 -59 180 -152
198 -292 5 -42 8 -82 6 -89 -3 -7 -7 -53 -10 -101 -6 -84 -5 -89 18 -112 33
-33 87 -34 116 -3 33 35 53 120 48 204 -4 88 2 91 78 40 149 -100 255 -265
240 -374 -6 -45 -38 -116 -58 -128 -6 -4 -53 -11 -103 -14 -64 -5 -104 -14
-135 -30 -65 -33 -162 -137 -207 -221 -21 -40 -45 -77 -54 -83 -13 -7 -34 -2
-80 18 -35 16 -116 51 -179 78 -63 27 -116 51 -118 53 -2 2 15 32 37 67 45 71
60 125 61 213 0 183 -107 350 -287 442 -93 49 -155 68 -266 83 -45 7 -88 17
-96 23 -21 18 -10 171 17 222 25 49 45 68 102 95 62 29 158 23 233 -14z
m-2826 -358 c4 -7 19 -46 33 -88 l25 -75 79 -25 c130 -42 130 -78 0 -120 l-79
-25 -25 -79 c-28 -84 -48 -108 -77 -90 -9 6 -29 46 -43 90 l-25 79 -79 25
c-130 42 -130 78 0 120 l79 25 25 75 c30 91 36 100 60 100 10 0 22 -6 27 -12z
m2253 -662 l0 -514 -72 -7 c-109 -10 -306 -51 -390 -81 -172 -62 -257 -117
-451 -291 -147 -132 -204 -176 -288 -218 -225 -115 -489 -77 -660 94 -73 74
-113 146 -130 235 -22 121 28 263 131 370 63 66 68 79 45 110 -22 29 -19 135
6 209 21 65 104 207 120 207 5 0 26 -35 48 -77 65 -130 103 -153 249 -153 62
0 92 -5 121 -20 55 -28 118 -104 136 -163 26 -89 29 -83 -92 -232 -120 -147
-134 -197 -71 -251 53 -44 69 -34 208 124 185 211 246 250 536 347 204 67 229
81 243 131 19 70 -2 120 -75 175 -63 47 -87 97 -82 168 5 73 39 141 99 200 81
80 233 149 332 150 l37 1 0 -514z m368 489 c162 -38 283 -149 322 -294 19 -74
0 -123 -80 -201 -79 -77 -94 -101 -86 -144 13 -70 58 -101 196 -136 117 -30
280 -99 273 -117 -5 -13 -216 -169 -258 -190 -15 -8 -49 -4 -139 18 -149 37
-275 59 -332 59 l-44 0 0 510 0 510 43 0 c23 0 70 -7 105 -15z m2534 -652 c22
-20 23 -41 1 -65 -20 -22 -41 -23 -65 -1 -22 20 -23 41 -1 65 20 22 41 23 65
1z m-5447 -208 c50 -49 15 -135 -55 -135 -41 0 -80 39 -80 80 0 41 39 80 80
80 19 0 40 -9 55 -25z m4695 -150 c69 -121 78 -262 25 -370 -44 -91 -133 -178
-229 -225 -133 -65 -260 -73 -434 -29 -79 20 -202 74 -202 89 0 5 41 37 90 70
50 34 138 105 196 158 58 53 113 101 121 106 20 11 33 -9 33 -52 0 -27 6 -35
35 -49 34 -16 36 -16 63 4 15 11 42 39 60 62 31 41 32 46 30 123 l-3 81 69 63
70 64 24 -22 c13 -13 36 -45 52 -73z m717 23 c4 -7 19 -46 33 -88 l25 -75 79
-25 c84 -28 108 -48 90 -77 -6 -9 -46 -29 -90 -43 l-79 -25 -25 -79 c-14 -44
-34 -84 -43 -90 -29 -18 -49 6 -77 90 l-25 79 -79 25 c-84 28 -108 48 -90 77
6 9 46 29 90 43 l79 25 25 75 c30 91 36 100 60 100 10 0 22 -6 27 -12z m-2863
-214 c7 -19 8 -261 0 -289 -4 -15 -51 -41 -182 -99 -175 -77 -177 -77 -205
-61 -41 25 -71 12 -136 -54 -52 -54 -64 -61 -151 -89 -162 -50 -147 -54 -155
31 -7 85 -3 111 38 191 87 176 278 287 611 356 167 34 172 35 180 14z m454
-17 c13 -13 8 -19 -34 -50 -65 -47 -199 -118 -207 -110 -10 9 -9 168 1 178 13
14 223 -2 240 -18z m-3236 -94 c22 -20 23 -41 1 -65 -20 -22 -41 -23 -65 -1
-22 20 -23 41 -1 65 20 22 41 23 65 1z m866 -396 c55 -50 164 -100 266 -122
61 -14 105 -16 195 -12 142 7 206 23 339 87 57 28 106 50 108 50 2 0 4 -43 4
-95 l0 -94 -111 -36 c-186 -58 -547 -125 -679 -125 -71 0 -98 15 -137 74 -47
69 -73 162 -73 257 0 79 0 80 23 68 12 -7 42 -30 65 -52z m3148 1 c256 -194
536 -195 877 -3 54 31 103 53 109 49 14 -9 1 -122 -22 -195 -45 -147 -178
-253 -368 -295 -110 -24 -281 -16 -386 20 -163 55 -223 110 -259 237 -14 47
-37 109 -52 139 -22 43 -25 57 -16 76 16 36 40 30 117 -28z m-272 -131 c63
-107 76 -214 36 -304 -41 -96 -143 -161 -208 -134 -16 7 -50 37 -76 67 -38 43
-53 54 -77 54 -36 0 -84 -43 -95 -84 -16 -66 58 -165 155 -209 69 -31 175 -28
263 8 78 31 151 103 190 185 13 27 27 49 32 50 5 0 37 -18 70 -39 132 -86 339
-128 505 -102 40 6 76 9 79 6 10 -10 -55 -80 -109 -117 -94 -65 -192 -100
-293 -106 l-89 -5 -60 -54 c-106 -95 -285 -163 -427 -163 -84 0 -200 29 -290
72 -160 76 -289 237 -336 418 -29 110 -37 102 234 240 130 66 287 151 347 189
61 38 113 69 117 70 4 1 18 -18 32 -42z m1806 -54 c49 -29 63 -83 33 -133 -29
-49 -83 -63 -133 -33 -49 29 -63 83 -33 133 29 50 83 63 133 33z m-2793 -463
c-40 -98 -87 -167 -163 -240 -83 -78 -168 -129 -274 -162 -62 -19 -96 -23
-195 -22 -102 0 -132 4 -200 27 -86 29 -197 85 -202 103 -2 6 101 40 254 84
269 76 422 129 658 227 77 33 141 56 143 52 2 -4 -8 -35 -21 -69z m2333 -55
c6 -8 14 -33 17 -55 6 -46 12 -51 72 -65 79 -18 82 -72 5 -88 -60 -14 -68 -20
-79 -72 -17 -82 -71 -88 -88 -9 -14 60 -20 68 -72 79 -82 17 -88 71 -9 88 60
13 68 21 77 68 5 24 14 50 19 57 14 16 43 15 58 -3z m-4310 -545 c11 -11 20
-33 20 -50 0 -17 -9 -39 -20 -50 -11 -11 -33 -20 -50 -20 -17 0 -39 9 -50 20
-11 11 -20 33 -20 50 0 17 9 39 20 50 11 11 33 20 50 20 17 0 39 -9 50 -20z
m587 -92 c6 -7 15 -26 20 -43 7 -21 19 -33 43 -41 66 -22 66 -67 -1 -89 -25
-9 -37 -20 -45 -45 -22 -66 -67 -66 -89 1 -9 25 -20 37 -45 45 -66 22 -66 67
1 89 24 8 37 21 44 41 15 43 24 54 44 54 10 0 23 -6 28 -12z m2083 -47 c24
-45 2 -81 -49 -81 -22 0 -41 27 -41 59 0 39 71 56 90 22z m-1382 -61 c68 -42
91 -124 52 -188 -57 -94 -183 -94 -240 0 -71 117 71 259 188 188z m2502 1 c24
-45 2 -81 -49 -81 -22 0 -41 27 -41 59 0 39 71 56 90 22z m-1643 -133 c4 -7
22 -53 38 -103 l30 -90 94 -31 c150 -48 150 -80 0 -128 l-94 -31 -31 -94 c-48
-150 -80 -150 -128 0 l-31 94 -94 31 c-52 16 -99 38 -105 47 -19 30 6 49 105
81 l94 31 30 90 c35 106 40 115 65 115 10 0 22 -6 27 -12z m984 -17 c20 -20
29 -39 29 -61 0 -43 -47 -90 -90 -90 -43 0 -90 47 -90 90 0 43 47 90 90 90 22
0 41 -9 61 -29z m-2101 -230 c24 -45 2 -81 -49 -81 -22 0 -41 27 -41 59 0 39
71 56 90 22z m1912 -118 c22 -20 23 -41 1 -65 -20 -22 -41 -23 -65 -1 -22 20
-23 41 -1 65 20 22 41 23 65 1z"/>
<path d="M2537 3812 c-39 -27 -87 -95 -103 -150 -40 -132 73 -280 165 -215 23
15 24 20 18 102 l-6 87 34 49 c19 27 35 55 35 63 0 22 -68 82 -93 82 -12 0
-34 -8 -50 -18z"/>
</g>
</svg>
